<svg width="20" height="19" viewBox="0 0 20 19" fill="none" xmlns="http://www.w3.org/2000/svg">
<path d="M1.00005 14.8223C1 14.7578 1 14.6912 1 14.6225V5.02246C1 3.90236 1 3.34189 1.21799 2.91406C1.40973 2.53774 1.71547 2.232 2.0918 2.04025C2.51962 1.82227 3.08009 1.82227 4.2002 1.82227H15.8002C16.9203 1.82227 17.4801 1.82227 17.9079 2.04025C18.2842 2.232 18.5905 2.53774 18.7822 2.91406C19 3.34147 19 3.90126 19 5.01918V14.6254C19 15.1104 19 15.4902 18.9822 15.7997M1.00005 14.8223C1.00082 15.8107 1.01337 16.3281 1.21799 16.7297C1.40973 17.106 1.71547 17.4127 2.0918 17.6045C2.5192 17.8223 3.07899 17.8223 4.19691 17.8223H15.8036C16.9215 17.8223 17.4805 17.8223 17.9079 17.6045C18.2842 17.4127 18.5905 17.106 18.7822 16.7297C18.9055 16.4877 18.959 16.2035 18.9822 15.7997M1.00005 14.8223L5.76798 9.25977L5.76939 9.25823C6.19227 8.76486 6.40406 8.51777 6.65527 8.42871C6.87594 8.35048 7.11686 8.3523 7.33643 8.43359C7.58664 8.52623 7.79506 8.77614 8.21191 9.27637L10.8831 12.4818C11.269 12.9448 11.463 13.1777 11.6986 13.2711C11.9065 13.3536 12.1357 13.3629 12.3501 13.2996C12.5942 13.2276 12.8091 13.0127 13.2388 12.583L13.7358 12.0859C14.1733 11.6484 14.3921 11.4299 14.6397 11.3584C14.8571 11.2956 15.0896 11.3091 15.2988 11.3955C15.537 11.4939 15.7302 11.7346 16.1167 12.2178L18.9822 15.7997M18.9822 15.7997L19 15.8219M13 7.82227C12.4477 7.82227 12 7.37455 12 6.82227C12 6.26998 12.4477 5.82227 13 5.82227C13.5523 5.82227 14 6.26998 14 6.82227C14 7.37455 13.5523 7.82227 13 7.82227Z" stroke="#1067FF" stroke-width="2" stroke-linecap="round" stroke-linejoin="round"/>
</svg>
