<svg width="130" height="32" viewBox="0 0 130 32" fill="none" xmlns="http://www.w3.org/2000/svg">
<rect x="0.80986" width="32" height="32" rx="8" fill="#1067FF"/>
<path fill-rule="evenodd" clip-rule="evenodd" d="M9.76221 8H16.8099C21.2099 8 24.8099 11.6 24.8099 16.0001V23.0477C24.8099 23.3096 24.7028 23.5477 24.5301 23.7203L24.5164 23.7336L24.5136 23.7363L24.5301 23.7203C24.5301 23.7203 23.3743 20.9105 20.6428 17.5166H21.1356C21.4443 17.5166 21.6968 17.2641 21.6968 16.9556V15.0444C21.6968 14.7358 21.4443 14.4834 21.1356 14.4834H18.3263V11.6741C18.3263 11.3655 18.0738 11.113 17.7651 11.113H15.8541C15.5454 11.113 15.2929 11.3655 15.2929 11.6741V12.2515C14.93 11.9704 14.5558 11.6927 14.1684 11.42C14.5574 11.7489 14.9315 12.0784 15.2929 12.4075V14.4833H12.4838C12.1752 14.4833 11.9226 14.7357 11.9226 15.0443V16.9555C11.9226 17.264 12.1751 17.5165 12.4838 17.5165H15.2929V20.3258C15.2929 20.6344 15.5454 20.8868 15.8541 20.8868H17.7651C18.0738 20.8868 18.3263 20.6344 18.3263 20.3258V17.5165H19.9966C22.8168 21.2007 23.8574 24 23.8574 24H16.8097C12.4098 24.0002 8.8098 20.4002 8.8098 16.0001V8.95241C8.8098 8.42861 9.23841 8 9.76221 8Z" fill="white"/>
<path d="M42.1178 27.418V4.88867H48.4385L55.3224 26.6044H53.1008L59.9847 4.88867H66.3367V27.418H62.3315V6.23417H62.9886L56.2924 27.418H51.943L45.3094 6.42192H45.9352V27.418H42.1178ZM76.6138 27.7309C74.9241 27.7309 73.443 27.3762 72.1705 26.667C70.9189 25.9577 69.9384 24.9773 69.2292 23.7257C68.5408 22.474 68.1966 21.0347 68.1966 19.4076C68.1966 17.7804 68.5408 16.3515 69.2292 15.1207C69.9384 13.8691 70.9189 12.8991 72.1705 12.2107C73.4221 11.5014 74.8824 11.1468 76.5512 11.1468C78.1366 11.1468 79.5134 11.4806 80.6816 12.1481C81.8498 12.7948 82.7572 13.7126 83.4039 14.9017C84.0505 16.0907 84.3739 17.478 84.3739 19.0634C84.3739 19.3554 84.3634 19.6266 84.3426 19.8769C84.3217 20.1272 84.2904 20.3776 84.2487 20.6279H70.6373V17.8743H81.2135L80.4 18.6253C80.4 17.1233 80.0558 15.9969 79.3674 15.2459C78.679 14.4949 77.7194 14.1194 76.4886 14.1194C75.1536 14.1194 74.0897 14.5784 73.297 15.4962C72.5251 16.4141 72.1392 17.7387 72.1392 19.4701C72.1392 21.1807 72.5251 22.4949 73.297 23.4128C74.0897 24.3098 75.2057 24.7583 76.6451 24.7583C77.4795 24.7583 78.2096 24.6018 78.8354 24.2889C79.4612 23.976 79.9202 23.4962 80.2122 22.8495H83.9358C83.4143 24.3515 82.5277 25.5405 81.2761 26.4167C80.0453 27.2928 78.4912 27.7309 76.6138 27.7309ZM97.9281 27.418V23.8195L98.241 23.8821C97.9698 25.0503 97.3127 25.989 96.2697 26.6983C95.2267 27.3867 93.9855 27.7309 92.5461 27.7309C91.0859 27.7309 89.8134 27.3971 88.7287 26.7296C87.6648 26.0412 86.8408 25.0816 86.2567 23.8508C85.6726 22.6201 85.3806 21.1703 85.3806 19.5014C85.3806 17.8117 85.683 16.3411 86.288 15.0894C86.8929 13.8378 87.7378 12.8678 88.8225 12.1794C89.9281 11.491 91.2111 11.1468 92.6713 11.1468C94.1732 11.1468 95.4144 11.5119 96.3949 12.242C97.3753 12.9512 97.9803 13.9421 98.2097 15.2146L97.803 15.2459V4.88867H101.777V27.418H97.9281ZM93.7039 24.5079C94.9764 24.5079 95.9881 24.0699 96.7391 23.1937C97.5109 22.2967 97.8968 21.0451 97.8968 19.4388C97.8968 17.8326 97.5109 16.5914 96.7391 15.7153C95.9672 14.8391 94.9451 14.401 93.6726 14.401C92.421 14.401 91.4092 14.8495 90.6374 15.7465C89.8656 16.6227 89.4796 17.8639 89.4796 19.4701C89.4796 21.0764 89.8656 22.3176 90.6374 23.1937C91.4092 24.0699 92.4314 24.5079 93.7039 24.5079ZM105.034 27.418V11.4597H108.977V27.418H105.034ZM104.846 8.8313V4.48189H109.133V8.8313H104.846ZM119.078 27.7309C117.471 27.7309 116.053 27.3762 114.822 26.667C113.612 25.9577 112.653 24.9773 111.943 23.7257C111.255 22.4532 110.911 21.0138 110.911 19.4076C110.911 17.8013 111.255 16.3828 111.943 15.152C112.653 13.9004 113.612 12.9199 114.822 12.2107C116.053 11.5014 117.471 11.1468 119.078 11.1468C120.392 11.1468 121.581 11.3971 122.645 11.8978C123.709 12.3776 124.585 13.066 125.273 13.963C125.962 14.8391 126.4 15.8613 126.587 17.0295H122.801C122.572 16.1742 122.134 15.5066 121.487 15.0269C120.84 14.5471 120.058 14.3072 119.14 14.3072C118.285 14.3072 117.544 14.5158 116.919 14.933C116.314 15.3502 115.844 15.9447 115.511 16.7166C115.177 17.4884 115.01 18.3854 115.01 19.4076C115.01 20.4506 115.177 21.358 115.511 22.1298C115.844 22.9017 116.324 23.5066 116.95 23.9447C117.576 24.3619 118.306 24.5705 119.14 24.5705C120.058 24.5705 120.84 24.3306 121.487 23.8508C122.134 23.371 122.572 22.7035 122.801 21.8482H126.587C126.4 23.0164 125.951 24.049 125.242 24.946C124.554 25.8221 123.677 26.5105 122.614 27.0112C121.571 27.491 120.392 27.7309 119.078 27.7309Z" fill="#37404C"/>
</svg>
